<?xml version="1.0" standalone="no"?><!DOCTYPE svg PUBLIC "-//W3C//DTD SVG 1.1//EN" "http://www.w3.org/Graphics/SVG/1.1/DTD/svg11.dtd"><svg t="1727778754929" class="icon" viewBox="0 0 1024 1024" version="1.1" xmlns="http://www.w3.org/2000/svg" p-id="4343" xmlns:xlink="http://www.w3.org/1999/xlink" width="200" height="200"><path d="M553.949867 571.733333a8.533333 8.533333 0 0 1-5.905067-14.6944l31.744-30.327466-40.8576 23.569066a8.533333 8.533333 0 0 1-11.281067-12.253866l20.053334-28.8256a8.533333 8.533333 0 0 1-6.826667-15.5136l31.1296-17.9712a8.533333 8.533333 0 0 1 11.264 12.253866l-19.780267 28.450134 69.256534-39.970134a8.533333 8.533333 0 0 1 10.24 13.550934l-31.6928 30.276266L653.653333 495.786667a8.533333 8.533333 0 0 1 11.5712 11.810133l-18.944 31.163733 9.745067-5.614933a8.533333 8.533333 0 1 1 8.533333 14.762667l-38.587733 22.306133a8.533333 8.533333 0 0 1-11.5712-11.810133l18.926933-31.1808-75.093333 43.3664a8.3456 8.3456 0 0 1-4.283733 1.143466zM768.119467 571.5968a8.533333 8.533333 0 0 1-6.690134-13.824l23.108267-29.166933-28.8256 16.622933a8.533333 8.533333 0 0 1-10.359467-13.346133l23.995734-24.541867-13.653334 7.867733a8.533333 8.533333 0 0 1-10.427733-13.294933L771.413333 474.453333l-15.7696 9.096534a8.533333 8.533333 0 0 1-10.052266-13.653334l10.461866-9.591466-0.4096 0.2048a8.533333 8.533333 0 0 1-12.629333-9.0624l5.6832-28.330667a8.533333 8.533333 0 0 1-1.5872-15.479467l8.635733-4.983466a8.533333 8.533333 0 0 1 12.629334 9.0624l-4.932267 24.576 50.926933-29.371734a8.533333 8.533333 0 0 1 10.052267 13.653334l-10.461867 9.591466 0.494934-0.273066a8.533333 8.533333 0 0 1 10.427733 13.294933L798.72 470.6304l15.837867-9.147733a8.533333 8.533333 0 0 1 10.376533 13.346133l-24.0128 24.576 13.653333-7.936a8.533333 8.533333 0 0 1 10.734934 1.792 8.533333 8.533333 0 0 1 0.221866 10.888533l-23.1424 29.201067 12.305067-7.082667a8.533333 8.533333 0 0 1 12.458667 9.7792l-4.164267 14.148267a8.3456 8.3456 0 0 1 3.413333 3.310933 8.533333 8.533333 0 0 1-3.1232 11.639467l-8.635733 4.983467a8.533333 8.533333 0 0 1-12.4416-9.7792l2.525867-8.6528-32.512 18.773333a8.3456 8.3456 0 0 1-4.096 1.1264z" fill="#B1CBDD" p-id="4344"></path><path d="M68.795733 1009.476267a8.533333 8.533333 0 0 1-6.1952-14.404267l35.4304-37.2224L57.480533 981.333333a8.533333 8.533333 0 0 1-9.693866-13.994666l31.3344-26.2656-11.4176 6.570666a8.533333 8.533333 0 0 1-11.332267-2.6112 8.533333 8.533333 0 0 1 1.826133-11.502933l16.827734-13.090133a8.533333 8.533333 0 0 1-5.5808-14.9504L117.76 863.112533l-20.309333 11.7248a8.533333 8.533333 0 0 1-10.0352-13.653333L119.466667 831.8464l-5.649067 3.259733a8.533333 8.533333 0 0 1-12.049067-10.9056l12.407467-27.477333a9.079467 9.079467 0 0 1-1.536-1.962667 8.533333 8.533333 0 0 1 3.1232-11.656533l8.533333-4.9152a8.533333 8.533333 0 0 1 12.032 10.9056L128.170667 807.082667l50.039466-28.842667a8.533333 8.533333 0 0 1 10.0352 13.653333l-31.9488 29.269334 28.347734-16.349867a8.533333 8.533333 0 0 1 9.8816 13.806933l-48.384 42.3424 20.616533-11.946666a8.533333 8.533333 0 0 1 9.506133 14.114133l-16.674133 12.987733a8.533333 8.533333 0 0 1 5.4784 15.069867l-31.3344 26.333867 6.980267-4.027734a8.533333 8.533333 0 0 1 10.4448 13.277867L115.712 964.010667l5.956267-3.413334a8.533333 8.533333 0 1 1 8.533333 14.762667l-57.1392 32.9728a8.430933 8.430933 0 0 1-4.266667 1.143467z" fill="#9FBACE" p-id="4345"></path><path d="M256.1536 730.6752a8.533333 8.533333 0 0 1-4.266667-15.906133l8.430934-4.864a8.533333 8.533333 0 1 1 8.533333 14.762666l-8.430933 4.864a8.430933 8.430933 0 0 1-4.266667 1.143467z" fill="#C0DAF0" p-id="4346"></path><path d="M234.0352 810.154667a8.533333 8.533333 0 0 1-5.546667-15.018667l28.433067-24.285867-66.0992 38.109867a8.533333 8.533333 0 0 1-11.178667-12.373333l25.6-35.259734-82.602666 47.633067a8.533333 8.533333 0 0 1-10.410667-13.294933l22.9888-23.893334-47.240533 27.306667a8.533333 8.533333 0 0 1-10.3936-13.329067l17.732266-18.210133-22.784 13.141333a8.533333 8.533333 0 0 1-11.144533-2.338133 8.533333 8.533333 0 0 1 1.109333-11.349333l5.597867-5.12-0.750933 0.4096a8.533333 8.533333 0 0 1-10.496-13.2096l23.261866-24.814934-16.2304 9.352534a8.533333 8.533333 0 0 1-9.949866-13.653334l4.5568-4.096a8.533333 8.533333 0 0 1-7.492267-14.165333L76.8 673.006933l-18.909867 10.9056a8.533333 8.533333 0 0 1-10.8032-12.885333l29.8496-35.4304-23.261866 13.4144a8.533333 8.533333 0 0 1-10.376534-13.346133l18.773334-19.182934-11.502934 6.621867a8.533333 8.533333 0 0 1-10.478933-13.226667l22.016-23.466666-14.916267 8.533333a8.533333 8.533333 0 0 1-10.4448-13.2608l20.48-21.4528-13.2608 7.645867a8.533333 8.533333 0 0 1-10.359466-13.3632l17.339733-17.629867-9.984 5.8368a8.533333 8.533333 0 0 1-10.24-13.499733l12.5952-12.270934-5.12 2.952534a8.533333 8.533333 0 0 1-10.5472-13.175467l22.698667-24.6784-15.633067 9.0112a8.533333 8.533333 0 0 1-10.24-13.448533l13.653333-13.4144-6.126933 3.5328a8.533333 8.533333 0 0 1-10.24-13.380267l15.684267-15.837867-8.311467 4.795734a8.533333 8.533333 0 0 1-10.069333-13.653334l6.161066-5.7344a8.533333 8.533333 0 0 1-8.8576-14.045866l13.4144-13.653334-5.905066 3.413334a8.533333 8.533333 0 0 1-11.52-11.946667l13.243733-21.418667a8.533333 8.533333 0 0 1-7.492267-15.36l28.330667-16.401066a8.533333 8.533333 0 0 1 11.502933 11.946666l-13.294933 21.3504 30.583467-17.646933a8.533333 8.533333 0 0 1 10.359466 13.3632l-13.397333 13.653333 9.079467-5.239466a8.533333 8.533333 0 0 1 10.069333 13.653333L85.333333 391.253333a8.533333 8.533333 0 0 1 8.942934 14.0288l-15.684267 15.837867 8.533333-4.9152a8.533333 8.533333 0 0 1 10.24 13.448533l-13.653333 13.431467 6.365867-3.669333a8.533333 8.533333 0 0 1 10.5472 13.175466l-22.698667 24.661334 15.889067-9.1648a8.533333 8.533333 0 0 1 10.24 13.499733l-12.5952 12.270933 5.3248-3.072a8.533333 8.533333 0 0 1 10.359466 13.3632L89.770667 521.7792l10.24-5.905067a8.533333 8.533333 0 0 1 10.461866 13.192534l-20.48 21.469866 13.5168-7.799466a8.533333 8.533333 0 0 1 10.496 13.2096L91.989333 579.413333l15.172267-8.7552a8.533333 8.533333 0 0 1 10.376533 13.3632l-18.773333 19.2 11.741867-6.826666a8.533333 8.533333 0 0 1 10.786133 12.885333l-29.7984 35.5328 23.569067-13.653333a8.533333 8.533333 0 0 1 10.5984 13.1072l-25.838934 28.672 19.234134-11.1104a8.533333 8.533333 0 0 1 9.949866 13.755733l-4.437333 3.959467a8.721067 8.721067 0 0 1 7.8848 3.157333 8.533333 8.533333 0 0 1-0.4608 11.127467L108.714667 718.6944l18.414933-10.615467a8.533333 8.533333 0 0 1 10.0352 13.653334l-5.614933 5.12 8.533333-4.949334a8.533333 8.533333 0 0 1 10.3936 13.329067l-17.681067 18.261333 46.08-26.606933a8.533333 8.533333 0 0 1 10.410667 13.294933l-22.9888 23.893334 64.938667-37.546667a8.533333 8.533333 0 0 1 11.178666 12.3904l-25.6 35.242667 111.837867-64.5632a8.533333 8.533333 0 0 1 9.813333 13.8752l-28.450133 24.302933 66.4064-38.331733a8.533333 8.533333 0 0 1 10.120533 13.653333L349.866667 757.76l55.005866-31.744a8.533333 8.533333 0 0 1 10.734934 12.9536l-25.924267 30.088533 15.36-8.891733a8.533333 8.533333 0 0 1 12.561067 9.4208l-4.727467 19.285333a8.533333 8.533333 0 0 1 0.8704 15.223467l-8.533333 4.898133a8.533333 8.533333 0 0 1-12.561067-9.4208l3.584-14.6432-41.557333 24.029867a8.533333 8.533333 0 0 1-10.734934-12.936533l25.924267-30.088534L295.253333 808.96a8.533333 8.533333 0 0 1-10.120533-13.653333l36.727467-34.679467-83.626667 48.264533a8.533333 8.533333 0 0 1-4.1984 1.262934z" fill="#C0DAF0" p-id="4347"></path><path d="M925.525333 1012.189867a8.533333 8.533333 0 0 1-6.9632-13.4656l24.251734-34.269867-33.160534 19.182933a8.533333 8.533333 0 0 1-10.0352-13.653333l9.608534-8.823467a8.533333 8.533333 0 0 1-9.728-13.909333l5.597866-4.881067a8.533333 8.533333 0 0 1-5.973333-14.609066l20.206933-20.002134-9.949866 5.7344a8.533333 8.533333 0 0 1-10.5472-13.141333l29.764266-32.426667-19.285333 11.008a8.533333 8.533333 0 0 1-10.461867-13.243733l26.948267-28.450133-16.4864 9.489066a8.533333 8.533333 0 0 1-10.666667-13.021866l32.597334-36.898134-21.930667 12.663467a8.533333 8.533333 0 0 1-10.0864-13.653333l12.4416-11.605334-2.3552 1.348267a8.533333 8.533333 0 0 1-10.24-13.431467l20.753067-20.6336-10.478934 6.0416a8.533333 8.533333 0 0 1-10.120533-13.653333l14.353067-13.653333-4.232534 2.423466a8.533333 8.533333 0 0 1-10.4448-13.243733l26.760534-28.228267-16.315734 9.4208a8.533333 8.533333 0 0 1-10.1376-13.568l15.2064-14.472533-5.12 2.9184a8.533333 8.533333 0 0 1-10.0864-13.653333l6.0928-5.649067a8.635733 8.635733 0 0 1-5.444266-1.706667 8.533333 8.533333 0 0 1-3.072-8.942933l4.727466-18.0736a8.533333 8.533333 0 0 1-0.750933-15.172267l8.6528-4.983466a8.533333 8.533333 0 0 1 12.526933 9.557333l-3.413333 13.226667 40.123733-23.159467a8.533333 8.533333 0 0 1 10.0864 13.653333l-2.781866 2.577067 2.116266-1.211733a8.533333 8.533333 0 0 1 10.1376 13.568l-15.2064 14.472533 5.12-2.9184a8.533333 8.533333 0 0 1 10.4448 13.243733l-26.760533 28.245334 16.315733-9.4208a8.533333 8.533333 0 0 1 10.120534 13.653333l-14.353067 13.653333 4.232533-2.440533a8.533333 8.533333 0 0 1 10.24 13.431467l-20.753066 20.6336 10.478933-6.024534a8.533333 8.533333 0 0 1 10.0864 13.653334l-12.4416 11.605333 2.3552-1.348267a8.533333 8.533333 0 0 1 10.666667 13.038934l-32.597334 36.898133 21.930667-12.663467a8.533333 8.533333 0 0 1 10.461867 13.243734l-26.948267 28.450133 16.4864-9.506133a8.533333 8.533333 0 0 1 10.5472 13.1584l-29.764267 32.426666 19.217067-11.076266a8.533333 8.533333 0 0 1 10.24 13.448533l-20.1728 19.968 9.915733-5.717333a8.533333 8.533333 0 0 1 9.8816 13.806933l-5.597866 4.898133a8.533333 8.533333 0 0 1 5.751466 14.813867l-9.693866 8.874667a8.533333 8.533333 0 0 1 10.888533 12.526933l-24.2688 34.269867 12.714667-7.3216a8.533333 8.533333 0 1 1 8.533333 14.762666L929.792 1011.029333a8.362667 8.362667 0 0 1-4.266667 1.160534z" fill="#B1CBDD" p-id="4348"></path><path d="M274.773333 332.202667a8.533333 8.533333 0 0 1-5.7856-14.813867l43.1104-39.714133-76.8 44.373333a8.533333 8.533333 0 0 1-9.7792-13.909333l70.126934-59.050667-90.453334 52.189867a8.533333 8.533333 0 0 1-9.1648-14.353067l12.714667-8.925867-15.445333 8.925867a8.533333 8.533333 0 0 1-9.591467-14.062933l86.0672-68.846934-90.5728 52.2752a8.533333 8.533333 0 0 1-9.216-14.336l30.907733-22.016-25.173333 14.523734a8.533333 8.533333 0 0 1-9.147733-14.301867l5.905066-4.130133a8.533333 8.533333 0 0 1-6.826666-14.933334l64.1024-54.3744-52.6336 30.378667a8.533333 8.533333 0 0 1-10.4448-13.2608L203.093333 125.303467a8.533333 8.533333 0 0 1-8.072533-15.018667l50.090667-28.928a8.533333 8.533333 0 0 1 10.478933 13.243733L219.170133 133.12l84.053334-48.520533a8.533333 8.533333 0 0 1 9.7792 13.892266l-64.085334 54.289067 86.152534-49.732267a8.533333 8.533333 0 0 1 9.130666 14.3872l-0.3072 0.221867 3.566934-2.065067a8.533333 8.533333 0 0 1 9.216 14.336L325.7344 151.893333l33.160533-19.1488a8.533333 8.533333 0 0 1 9.608534 14.045867l-86.101334 68.881067 87.04-50.2784a8.533333 8.533333 0 0 1 9.1648 14.370133l-12.714666 8.9088 4.7616-2.747733a8.533333 8.533333 0 0 1 9.762133 13.9264l-70.0928 59.050666 59.835733-34.56a8.533333 8.533333 0 0 1 10.052267 13.653334l-43.1104 39.714133 18.909867-10.9056a8.533333 8.533333 0 1 1 8.533333 14.762667L279.057067 331.093333a8.533333 8.533333 0 0 1-4.283734 1.109334zM491.758933 554.154667a8.533333 8.533333 0 0 1-6.263466-14.336l32.256-34.8672-82.7904 47.786666a8.533333 8.533333 0 0 1-10.24-13.4144l38.1952-38.1952-63.556267 36.7104a8.533333 8.533333 0 0 1-10.5472-13.1584l26.094933-28.416-36.539733 21.0432a8.533333 8.533333 0 0 1-10.069333-13.653333l7.543466-6.997333-11.4688 6.6048a8.533333 8.533333 0 0 1-10.24-13.448534l14.779734-14.626133-20.667734 11.946667a8.533333 8.533333 0 1 1-8.533333-14.762667l77.960533-45.0048a8.533333 8.533333 0 0 1 10.24 13.448533l-14.762666 14.626134 19.694933-11.3664a8.533333 8.533333 0 0 1 10.0864 13.653333l-7.5264 6.997333 19.0976-11.025066a8.533333 8.533333 0 0 1 10.5472 13.1584l-26.094933 28.381866 71.5264-41.301333a8.533333 8.533333 0 0 1 10.24 13.4144l-38.1952 38.1952 75.400533-43.537067a8.533333 8.533333 0 0 1 10.5472 13.192534l-32.256 34.8672 38.4-22.186667a8.533333 8.533333 0 0 1 10.9568 12.663467l-13.4144 17.066666a8.277333 8.277333 0 0 1 7.936 4.2496 8.533333 8.533333 0 0 1-3.106133 11.656534l-33.194667 19.165866a8.533333 8.533333 0 0 1-10.9568-12.663466l11.946667-15.189334-48.810667 28.16a8.413867 8.413867 0 0 1-4.215467 1.160534z" fill="#3F54EA" p-id="4349"></path><path d="M427.400533 1012.155733a8.533333 8.533333 0 0 1-5.717333-14.882133l6.621867-5.956267-14.967467 8.635734a8.533333 8.533333 0 0 1-9.693867-13.9776l5.495467-4.5056-6.6048 3.7888a8.533333 8.533333 0 0 1-9.915733-13.7728l31.931733-28.16-27.306667 15.735466a8.533333 8.533333 0 0 1-10.24-13.653333l49.902934-47.2576-39.594667 22.818133a8.533333 8.533333 0 0 1-9.9328-13.7728l38.826667-34.525866-28.893867 16.674133a8.533333 8.533333 0 0 1-9.5744-14.062933l10.786133-8.533334-1.211733 0.699734a8.533333 8.533333 0 0 1-9.864533-13.806934l34.542933-30.037333-24.6784 14.2336a8.533333 8.533333 0 0 1-9.949867-13.755733l39.406934-35.140267-29.457067 17.066667a8.533333 8.533333 0 0 1-9.9328-13.7728l38.7072-34.474667-28.7744 16.605867a8.533333 8.533333 0 0 1-9.984-13.653334l40.5504-36.488533-36.539733 20.992a8.533333 8.533333 0 0 1-9.728-13.943467l21.981866-18.261333-48.0256 27.682133a8.533333 8.533333 0 0 1-9.984-13.653333l49.493334-44.9024L293.546667 740.693333a8.533333 8.533333 0 0 1-9.250134-14.301866l3.413334-2.474667-28.928 16.6912a8.533333 8.533333 0 0 1-9.813334-13.8752l47.786667-40.840533-74.615467 43.076266a8.533333 8.533333 0 0 1-9.8304-13.8752l53.930667-46.08-64.853333 37.444267a8.533333 8.533333 0 0 1-9.250134-14.318933l5.5808-4.027734-3.037866 1.706667a8.533333 8.533333 0 0 1-9.557334-14.08l58.709334-46.404267-51.319467 29.678934a8.533333 8.533333 0 0 1-9.659733-13.994667l69.393066-56.32-59.733333 34.491733a8.533333 8.533333 0 0 1-9.5232-14.114133l56.132267-43.810133-46.609067 26.845866a8.533333 8.533333 0 0 1-9.079467-14.421333l40.8576-27.886933-31.778133 18.346666a8.533333 8.533333 0 0 1-9.335467-14.250666l86.6816-64-77.346133 44.6464a8.533333 8.533333 0 0 1-9.1648-14.370134l35.84-25.070933-26.606933 15.36a8.533333 8.533333 0 0 1-9.284267-14.2848l47.445333-34.491733-38.229333 22.016a8.533333 8.533333 0 0 1-9.3184-14.267734l37.205333-27.306666-27.886933 16.093866a8.533333 8.533333 0 0 1-9.2672-14.301866l15.2064-11.008-5.9392 3.413333a8.533333 8.533333 0 0 1-9.6256-14.011733l39.662933-32-30.037333 17.339733a8.533333 8.533333 0 0 1-9.5744-14.08l8.1408-6.4512a8.533333 8.533333 0 0 1-7.287467-14.574933l16.2816-15.735467a8.362667 8.362667 0 0 1-3.549866-3.413333 8.533333 8.533333 0 0 1 3.1232-11.656534l40.5504-23.415466a8.533333 8.533333 0 0 1 10.24 13.5168l-4.864 4.693333 33.4336-19.285333a8.533333 8.533333 0 0 1 9.5744 14.062933l-5.12 4.0448 25.6-14.779733a8.533333 8.533333 0 0 1 9.6256 14.011733l-39.68 32.034133 55.5008-31.863466a8.533333 8.533333 0 0 1 9.2672 14.301866l-15.172267 10.9568 19.319467-11.144533a8.533333 8.533333 0 0 1 9.301333 14.267733l-37.205333 27.306667 42.837333-24.7296a8.533333 8.533333 0 0 1 9.284267 14.2848l-47.530667 34.474667 53.9136-31.112534a8.533333 8.533333 0 0 1 9.1648 14.370134l-35.84 25.105066 40.8064-23.552a8.533333 8.533333 0 0 1 9.335467 14.250667l-86.596267 63.9488 97.024-55.944533a8.533333 8.533333 0 0 1 9.0624 14.4384l-77.3632 52.804266a8.533333 8.533333 0 0 1 2.013867 14.626134l-56.1152 43.793066 46.711466-26.965333a8.533333 8.533333 0 0 1 9.642667 14.011733l-69.393067 56.32 59.869867-34.56a8.533333 8.533333 0 0 1 9.557333 14.08l-58.709333 46.3872 49.2544-28.416a8.533333 8.533333 0 0 1 9.250133 14.318934l-7.389866 5.307733a8.533333 8.533333 0 0 1 8.0384 14.660267l-53.691734 46.08 75.8784-43.793067a8.533333 8.533333 0 0 1 9.796267 13.8752l-47.786667 40.840533 94.72-54.715733a8.533333 8.533333 0 0 1 9.250134 14.301867l-3.413334 2.440533 24.183467-13.943467a8.533333 8.533333 0 0 1 10.001067 13.653334l-49.493334 44.9024 65.826134-37.9904a8.533333 8.533333 0 0 1 9.710933 13.943466l-21.930667 18.2272 19.831467-11.451733a8.533333 8.533333 0 0 1 9.966933 13.653333L459.093333 718.967467l31.044267-17.92a8.533333 8.533333 0 0 1 9.9328 13.7728L461.380267 749.226667l28.7744-16.5888a8.533333 8.533333 0 0 1 11.178666 2.372266 8.533333 8.533333 0 0 1-1.2288 11.3664l-39.406933 35.157334 29.457067-17.066667a8.533333 8.533333 0 0 1 9.864533 13.806933l-34.542933 30.037334 24.6784-14.2336a8.533333 8.533333 0 0 1 9.5744 14.062933l-10.786134 8.533333 1.211734-0.699733a8.533333 8.533333 0 0 1 9.9328 13.7728l-38.826667 34.542933 28.893867-16.6912a8.533333 8.533333 0 0 1 10.24 13.653334l-49.834667 47.325866 39.594667-22.818133a8.533333 8.533333 0 0 1 9.915733 13.789867l-31.931733 28.142933 22.016-12.714667a8.533333 8.533333 0 0 1 9.693866 13.9776l-7.304533 5.9904a8.533333 8.533333 0 0 1 7.594667 14.6944l-8.533334 7.7312a8.533333 8.533333 0 0 1 5.597867 15.803734l-65.4848 37.819733a8.3456 8.3456 0 0 1-4.317867 1.160533z" fill="#3F54EA" p-id="4350"></path><path d="M688.674133 639.488a8.533333 8.533333 0 0 1-5.410133-15.138133l21.725867-17.7664-55.022934 31.709866a8.533333 8.533333 0 0 1-10.513066-13.192533l39.697066-42.666667-96.802133 55.8592a8.533333 8.533333 0 0 1-10.359467-13.346133l38.997334-39.970133-92.398934 53.316266a8.533333 8.533333 0 0 1-11.264-2.491733 8.533333 8.533333 0 0 1 1.536-11.451733l24.507734-20.3776-59.477334 34.321066a8.533333 8.533333 0 0 1-10.24-13.4656l37.905067-37.188266-69.000533 39.816533a8.533333 8.533333 0 0 1-10.939734-2.082133 8.533333 8.533333 0 0 1 0.443734-11.144534l29.4912-31.505066-20.104534 11.605333a8.533333 8.533333 0 0 1-10.24-1.194667 8.533333 8.533333 0 0 1-1.706666-10.0864l8.533333-16.469333a8.533333 8.533333 0 0 1-4.232533-15.9232L443.733333 539.306667a8.533333 8.533333 0 0 1 11.844267 11.298133l-7.4752 14.5408 44.680533-25.838933a8.533333 8.533333 0 0 1 10.496 13.2096l-29.4912 31.505066L551.253333 539.306667a8.533333 8.533333 0 0 1 10.24 13.4656l-37.888 37.154133 87.790934-50.619733a8.533333 8.533333 0 0 1 9.728 13.943466l-24.507734 20.3776 59.477334-34.321066a8.533333 8.533333 0 0 1 10.376533 13.346133l-39.031467 40.004267 92.416-53.3504a8.533333 8.533333 0 0 1 10.513067 13.192533l-39.697067 42.666667 96.802134-55.8592a8.533333 8.533333 0 0 1 9.659733 13.9776l-21.7088 17.7664 55.005867-31.744a8.533333 8.533333 0 0 1 9.847466 13.841066l-29.320533 25.309867 67.822933-39.150933a8.533333 8.533333 0 0 1 10.24 13.448533l-38.126933 37.546667 88.558933-50.9952a8.533333 8.533333 0 0 1 9.591467 14.0288l-17.885867 14.370133 49.220267-28.398933a8.533333 8.533333 0 0 1 10.5472 13.175466l-39.765333 42.939734 50.9952-29.4912a8.533333 8.533333 0 0 1 10.769066 12.919466l-17.066666 20.087467 6.2976-3.6352a8.533333 8.533333 0 0 1 8.533333 14.762667L961.723733 638.293333a8.533333 8.533333 0 0 1-10.769066-12.9024l17.066666-20.0704-57.156266 32.9728a8.533333 8.533333 0 0 1-10.530134-13.175466l39.748267-42.939734-97.194667 56.1152a8.533333 8.533333 0 0 1-9.608533-14.0288l17.954133-14.421333-49.288533 28.450133a8.533333 8.533333 0 0 1-10.24-13.448533l38.109867-37.546667-88.5248 50.9952a8.533333 8.533333 0 0 1-9.864534-13.841066l29.3376-25.309867L692.906667 638.293333a8.533333 8.533333 0 0 1-4.232534 1.194667z" fill="#C0DAF0" p-id="4351"></path><path d="M737.792 434.688a8.533333 8.533333 0 0 1-5.8368-14.762667l27.938133-26.3168-38.314666 22.186667a8.533333 8.533333 0 0 1-11.2128-2.4064 8.533333 8.533333 0 0 1 1.3312-11.400533l35.6864-31.146667-25.8048 14.865067a8.533333 8.533333 0 0 1-9.8816-13.824l35.669333-31.1296-25.787733 14.882133a8.533333 8.533333 0 0 1-9.762134-13.909333l28.2624-23.893334-18.500266 10.666667a8.533333 8.533333 0 0 1-10.103467-13.653333l48.128-45.294934-38.024533 22.016a8.533333 8.533333 0 0 1-9.506134-14.097066l7.3728-5.7856a8.533333 8.533333 0 0 1-7.918933-14.557867l44.9024-41.335467-34.850133 20.104534a8.533333 8.533333 0 0 1-10.103467-13.653334l48.418133-45.704533-38.314666 22.186667a8.533333 8.533333 0 0 1-9.864534-13.824l35.054934-30.549334-25.1904 14.609067a8.533333 8.533333 0 0 1-10.052267-13.653333l44.561067-40.96-34.5088 19.8144a8.533333 8.533333 0 0 1-10.018134-13.653334l43.298134-39.543466-33.28 19.2a8.533333 8.533333 0 0 1-10.24-13.533867l27.784533-26.760533-17.544533 10.103466a8.533333 8.533333 0 0 1-11.946667-10.9568l9.9328-21.623466a8.533333 8.533333 0 0 1-8.669867-4.164267 8.533333 8.533333 0 0 1 3.1232-11.639467L733.764267 10.24a8.533333 8.533333 0 0 1 11.946666 10.939733l-9.506133 20.6848L791.0912 10.24a8.533333 8.533333 0 0 1 10.24 13.533867l-27.8528 26.7264 40.96-23.620267a8.533333 8.533333 0 0 1 10.018133 13.653333L781.175467 80.042667l33.297066-19.217067a8.533333 8.533333 0 0 1 10.052267 13.653333L779.946667 115.490133 814.523733 95.573333a8.533333 8.533333 0 0 1 9.864534 13.806934L789.316267 139.946667l25.2416-14.557867a8.533333 8.533333 0 0 1 10.103466 13.653333l-48.418133 45.687467 38.3488-22.186667a8.533333 8.533333 0 0 1 10.052267 13.653334l-44.9024 41.352533 34.901333-20.155733a8.533333 8.533333 0 0 1 9.5232 14.114133l-7.3728 5.768533a8.533333 8.533333 0 0 1 7.9872 14.472534l-48.162133 45.312 38.0928-21.981867a8.533333 8.533333 0 0 1 9.7792 13.909333l-28.279467 23.893334 18.5344-10.7008a8.533333 8.533333 0 0 1 9.8816 13.824l-35.652267 31.112533 25.821867-14.8992a8.533333 8.533333 0 0 1 9.8816 13.824l-35.703467 31.146667 25.856-14.916267a8.533333 8.533333 0 0 1 10.120534 13.653333L797.013333 382.139733l17.885867-10.24a8.533333 8.533333 0 0 1 10.24 1.348267 8.533333 8.533333 0 0 1 1.348267 10.325333l-11.195734 19.2a8.533333 8.533333 0 0 1 8.157867 14.967467l-27.306667 15.752533a8.533333 8.533333 0 0 1-11.639466-11.656533l11.195733-19.285333L742.058667 433.493333a8.362667 8.362667 0 0 1-4.266667 1.194667z" fill="#4A587F" p-id="4352"></path><path d="M992.631467 538.368c-53.5552-2.065067-107.52 0.938667-161.0752 0q0.136533-223.573333 0.119466-447.146667c-0.085333-39.8336 14.353067-90.641067-45.277866-82.517333-54.613333-2.730667-90.282667-6.741333-82.0736 61.525333V336.042667c2.7136 33.143467-19.063467 102.656 34.133333 99.072v103.253333h-63.2832c17.3056-54.0672-52.0704-81.032533-95.095467-66.048a55.842133 55.842133 0 0 0-37.546666-18.039467 412.023467 412.023467 0 0 1-78.813867-0.324266c-57.4976-30.225067-79.5136-112.418133-144.366933-132.864 141.021867-69.051733 55.466667-308.906667-103.099734-227.515734-84.548267 44.509867-79.2064 197.546667 11.6736 230.519467-63.505067 21.230933-52.599467 92.893867-52.548266 146.363733 8.874667 68.7616-25.480533 212.770133 29.696 255.402667-25.122133 0.887467-57.4976 5.12-64.341334-25.0368-14.1824-90.112-22.186667-181.674667-35.447466-272.128-4.096-31.419733-0.631467-85.6576-40.3456-94.4128a48.315733 48.315733 0 0 0-59.921067 48.964267q20.48 171.298133 41.284267 342.6304c0.324267 38.434133 14.523733 81.152 58.692266 83.899733-20.1216 51.2-43.1616 101.2736-62.583466 152.644267a38.178133 38.178133 0 0 0 40.96 49.6128A54.391467 54.391467 0 0 0 133.12 979.421867q34.133333-84.241067 68.164267-168.533334c59.733333-1.0752 119.466667-0.375467 179.2-0.5632 8.704 59.306667-31.744 188.603733 49.493333 202.461867a67.2768 67.2768 0 0 0 77.312-63.829333c0.4096-86.203733-0.238933-172.373333 0-258.6624a67.413333 67.413333 0 0 0-18.773333-50.517334c134.536533-1.4336 269.021867-0.1024 403.575466-0.546133v323.208533c0 24.4224 7.355733 47.650133 36.2496 50.500267a49.152 49.152 0 0 0 56.7296-47.684267c0.768-108.6464-0.392533-217.326933 0-325.973333 38.3488-2.594133 34.9184-34.4576 34.133334-64.119467 0.1536-19.6608-3.4816-35.413333-26.5728-36.795733zM730.453333 411.409067c-3.054933-124.842667-0.238933-251.716267-1.092266-377.173334-2.474667-17.066667 22.971733-7.8336 32.238933-8.7552 25.002667-1.706667 52.206933-6.075733 45.2096 28.535467V418.304c-18.773333-0.477867-34.440533 0.6144-54.254933 0.9216-9.1136 0.9216-19.3536-1.621333-22.101334-7.816533z m32.9728 28.672v-5.12h43.502934v103.338666h-43.588267z m-112.981333 97.518933l-0.512 0.136533a5.12 5.12 0 0 0 0.529067-0.136533z m-54.254933-50.978133h16.128c1.8944 0-0.733867-0.170667-0.8192 0 23.7056-1.3312 48.605867 29.013333 39.714133 50.414933l-0.597333 0.4608a17.3568 17.3568 0 0 0-5.444267 0.955733h-72.379733a43.349333 43.349333 0 0 0 16.418133-51.2 41.728 41.728 0 0 1 6.980267-0.699733z m-179.336534 136.96a960.512 960.512 0 0 1-63.146666 1.365333v-117.111467c18.944 20.053333 38.485333 40.789333 66.986666 43.895467a118.562133 118.562133 0 0 0-3.84 71.850667z m-233.813333-403.0976c-21.572267-138.24 148.701867-180.411733 179.2-42.530134 28.586667 155.921067-157.354667 195.3792-179.165867 42.530134z m-68.266667 748.322133c-6.468267 21.0432-18.414933 47.189333-40.96 23.022933-28.893867-31.5392 43.810133-137.898667 53.486934-180.992q25.6 0.699733 51.2 0.392534zM139.946667 793.941333c-38.434133 5.12-66.372267-13.550933-66.56-54.186666L31.4368 391.441067c-2.1504-17.749333-1.706667-58.487467 29.627733-36.778667 22.3232 25.105067 13.312 66.679467 21.6576 98.082133l30.72 235.2128c-0.256 52.906667 39.441067 58.2144 82.875734 54.084267 55.517867 1.501867 111.36-3.242667 166.434133-1.706667 26.3168 1.8944 15.616 35.601067 17.7664 53.572267z m342.5792 42.0352c-5.7344 49.493333 13.892267 109.585067-12.561067 153.3952-28.8256 32-63.505067-8.2432-65.1264-37.410133-0.512-65.7408 0.8192-131.584 0-197.3248-1.501867-47.530667-88.746667-20.48-121.309867-27.306667-119.022933 10.24-77.175467-130.577067-83.5072-205.858133 1.911467-49.117867-3.925333-99.3792 2.1504-147.899733 9.284267-39.5264 45.789867-43.758933 79.223467-42.3936 48.401067-1.348267 75.093333 49.954133 105.3696 80.981333 43.229867 64.392533 75.946667 57.582933 145.834667 55.125333 38.126933 0.9216 49.7664 63.573333 9.8304 71.0656-48.622933-6.638933-105.301333 16.520533-145.066667-20.48-17.902933-11.6736-49.083733-69.632-68.522667-36.6592v153.6c29.8496 9.813333 76.987733-1.706667 110.148267 4.4544 74.717867 5.2736 35.0208 144.6912 43.588267 196.7104z m-3.822934-212.2752c-46.08 7.970133-42.257067-16.878933-39.662933-53.76 0-14.1824-2.577067-16.042667 10.786133-16.042666h191.488c113.800533 0.6144 229.444267-0.699733 343.04 0 13.277867 3.7888 10.1376 17.476267 10.1376 27.818666 0 3.8912 3.072 40.6016-3.106133 41.984z m475.7504 369.698134c-24.814933 23.569067-41.898667-20.48-37.546666-40.96V639.1808h43.554133v305.851733c-0.017067 13.277867 3.703467 37.563733-6.007467 48.366934z" fill="#262626" p-id="4353"></path></svg>